<?xml version="1.0" encoding="UTF-8"?>
<svg xmlns="http://www.w3.org/2000/svg" width="1540" height="990" viewBox="0 0 1540 990">
  <defs>
    <marker id="association" markerWidth="10" markerHeight="8" refX="9" refY="4" orient="auto" markerUnits="strokeWidth">
      <path d="M 0 0 L 10 4 L 0 8 z" fill="#40536b"/>
    </marker>
    <marker id="inheritance" markerWidth="14" markerHeight="12" refX="12" refY="6" orient="auto" markerUnits="strokeWidth">
      <path d="M 0 0 L 12 6 L 0 12 z" fill="#ffffff" stroke="#2f3d4d" stroke-width="1.5"/>
    </marker>
    <style>
      svg {
        background: #f6f8fb;
        font-family: "Segoe UI", Arial, sans-serif;
      }
      .class-box rect {
        fill: #ffffff;
        stroke: #2f3d4d;
        stroke-width: 1.4;
      }
      .class-title-bg {
        fill: #e8eef6 !important;
      }
      .class-box line {
        stroke: #2f3d4d;
        stroke-width: 1.2;
      }
      .title {
        fill: #182536;
        font-size: 17px;
        font-weight: 700;
        text-anchor: middle;
      }
      .field {
        fill: #24364a;
        font-size: 13px;
      }
      .association-line {
        fill: none;
        stroke: #40536b;
        stroke-width: 1.4;
      }
      .inheritance-line {
        fill: none;
        stroke: #2f3d4d;
        stroke-width: 1.8;
      }
      .relation-label {
        fill: #5d6f84;
        font-size: 12px;
        text-anchor: middle;
        paint-order: stroke;
        stroke: #f6f8fb;
        stroke-width: 5px;
      }
      .cardinality {
        fill: #304258;
        font-size: 12px;
        font-weight: 600;
        paint-order: stroke;
        stroke: #f6f8fb;
        stroke-width: 5px;
        text-anchor: middle;
      }
    </style>
  </defs>
  <text x="60" y="34" style="font-size: 22px; font-weight: 700; fill: #182536;">Class Diagram: Django Classifieds Project</text>
  <g class="relation">
<polyline class="inheritance-line" points="202,220 202,150" marker-end="url(#inheritance)"/>
<text x="202" y="177" class="relation-label">extends</text>
</g>
<g class="relation">
<polyline class="association-line" points="202,442 202,520" marker-end="url(#association)"/>
<text x="202" y="473" class="relation-label">visits</text><text x="216" y="434" class="cardinality">1</text><text x="216" y="536" class="cardinality">0..*</text>
</g>
<g class="relation">
<polyline class="association-line" points="345,330 390,330 390,610 430,610" marker-end="url(#association)"/>
<text x="390" y="459" class="relation-label">listings</text><text x="359" y="322" class="cardinality">1</text><text x="416" y="602" class="cardinality">0..*</text>
</g>
<g class="relation">
<polyline class="association-line" points="345,285 370,285 370,45 760,45 760,305 805,305" marker-end="url(#association)"/>
<text x="585" y="37" class="relation-label">reviews</text><text x="359" y="277" class="cardinality">1</text><text x="791" y="297" class="cardinality">0..*</text>
</g>
<g class="relation">
<polyline class="association-line" points="345,360 370,360 370,930 765,930 765,512 805,512" marker-end="url(#association)"/>
<text x="499" y="922" class="relation-label">favorites</text><text x="359" y="352" class="cardinality">1</text><text x="791" y="504" class="cardinality">0..*</text>
</g>
<g class="relation">
<polyline class="association-line" points="345,260 360,260 360,30 1160,30 1160,150 1180,150" marker-end="url(#association)"/>
<text x="707" y="22" class="relation-label">orders</text><text x="359" y="252" class="cardinality">1</text><text x="1166" y="142" class="cardinality">0..*</text>
</g>
<g class="relation">
<polyline class="association-line" points="345,395 385,395 385,945 1160,945 1160,500 1180,500" marker-end="url(#association)"/>
<text x="710" y="937" class="relation-label">canceled_orders</text><text x="359" y="387" class="cardinality">0..1</text><text x="1166" y="492" class="cardinality">0..*</text>
</g>
<g class="relation">
<polyline class="association-line" points="345,420 365,420 365,960 1140,960 1140,800 1180,800" marker-end="url(#association)"/>
<text x="572" y="952" class="relation-label">sent/received</text><text x="359" y="412" class="cardinality">1</text><text x="1166" y="792" class="cardinality">0..*</text>
</g>
<g class="relation">
<polyline class="association-line" points="715,130 745,130 745,465 715,465" marker-end="url(#association)"/>
<text x="745" y="289" class="relation-label">category</text><text x="729" y="122" class="cardinality">0..1</text><text x="729" y="457" class="cardinality">0..*</text>
</g>
<g class="relation">
<polyline class="association-line" points="572,391 572,435" marker-end="url(#association)"/>
<text x="572" y="405" class="relation-label">location</text><text x="586" y="383" class="cardinality">0..1</text><text x="586" y="451" class="cardinality">0..*</text>
</g>
<g class="relation">
<polyline class="association-line" points="715,470 765,470 765,45 948,45 948,60" marker-end="url(#association)"/>
<text x="765" y="175" class="relation-label">images</text><text x="729" y="462" class="cardinality">1</text><text x="962" y="76" class="cardinality">0..*</text>
</g>
<g class="relation">
<polyline class="association-line" points="715,535 750,535 750,305 805,305" marker-end="url(#association)"/>
<text x="750" y="402" class="relation-label">reviews</text><text x="729" y="527" class="cardinality">1</text><text x="791" y="297" class="cardinality">0..*</text>
</g>
<g class="relation">
<polyline class="association-line" points="715,512 805,512" marker-end="url(#association)"/>
<text x="760" y="504" class="relation-label">favorited_by</text><text x="729" y="504" class="cardinality">1</text><text x="791" y="504" class="cardinality">0..*</text>
</g>
<g class="relation">
<polyline class="association-line" points="715,610 1125,610 1125,205 1180,205" marker-end="url(#association)"/>
<text x="1125" y="577" class="relation-label">orders</text><text x="729" y="602" class="cardinality">1</text><text x="1166" y="197" class="cardinality">0..*</text>
</g>
<g class="relation">
<polyline class="association-line" points="715,555 1145,555 1145,540 1180,540" marker-end="url(#association)"/>
<text x="955" y="547" class="relation-label">canceled_orders</text><text x="729" y="547" class="cardinality">0..1</text><text x="1166" y="532" class="cardinality">0..*</text>
</g>
<g class="relation">
<polyline class="association-line" points="715,750 1110,750 1110,780 1180,780" marker-end="url(#association)"/>
<text x="962" y="742" class="relation-label">messages</text><text x="729" y="742" class="cardinality">0..1</text><text x="1166" y="772" class="cardinality">0..*</text>
</g>
  <g class="class-box" id="AbstractUser">
<rect x="60" y="60" width="285" height="90" rx="8"/>
<rect class="class-title-bg" x="60" y="60" width="285" height="42" rx="8"/>
<line x1="60" y1="102" x2="345" y2="102"/>
<text x="202.5" y="87" class="title">AbstractUser</text>
<text x="76" y="120" class="field">&lt;&lt;Django&gt;&gt;</text>
</g>
<g class="class-box" id="CustomUser">
<rect x="60" y="220" width="285" height="222" rx="8"/>
<rect class="class-title-bg" x="60" y="220" width="285" height="42" rx="8"/>
<line x1="60" y1="262" x2="345" y2="262"/>
<text x="202.5" y="247" class="title">CustomUser</text>
<text x="76" y="280" class="field">+ full_name: CharField</text>
<text x="76" y="302" class="field">+ phone: CharField</text>
<text x="76" y="324" class="field">+ role: CharField</text>
<text x="76" y="346" class="field">+ email_verified: BooleanField</text>
<text x="76" y="368" class="field">+ verification_code: CharField</text>
<text x="76" y="390" class="field">+ verification_code_expires_at: DateTimeField</text>
<text x="76" y="412" class="field">+ effective_role: property</text>
</g>
<g class="class-box" id="Visit">
<rect x="60" y="520" width="285" height="200" rx="8"/>
<rect class="class-title-bg" x="60" y="520" width="285" height="42" rx="8"/>
<line x1="60" y1="562" x2="345" y2="562"/>
<text x="202.5" y="547" class="title">Visit</text>
<text x="76" y="580" class="field">+ user: ForeignKey</text>
<text x="76" y="602" class="field">+ path: CharField</text>
<text x="76" y="624" class="field">+ ip: CharField</text>
<text x="76" y="646" class="field">+ user_agent: TextField</text>
<text x="76" y="668" class="field">+ created_at: DateTimeField</text>
<text x="76" y="690" class="field">+ __str__()</text>
</g>
<g class="class-box" id="Category">
<rect x="430" y="60" width="285" height="134" rx="8"/>
<rect class="class-title-bg" x="430" y="60" width="285" height="42" rx="8"/>
<line x1="430" y1="102" x2="715" y2="102"/>
<text x="572.5" y="87" class="title">Category</text>
<text x="446" y="120" class="field">+ name: CharField</text>
<text x="446" y="142" class="field">+ delivery_price: IntegerField</text>
<text x="446" y="164" class="field">+ __str__()</text>
</g>
<g class="class-box" id="Location">
<rect x="430" y="235" width="285" height="156" rx="8"/>
<rect class="class-title-bg" x="430" y="235" width="285" height="42" rx="8"/>
<line x1="430" y1="277" x2="715" y2="277"/>
<text x="572.5" y="262" class="title">Location</text>
<text x="446" y="295" class="field">+ city: CharField</text>
<text x="446" y="317" class="field">+ latitude: FloatField</text>
<text x="446" y="339" class="field">+ longitude: FloatField</text>
<text x="446" y="361" class="field">+ __str__()</text>
</g>
<g class="class-box" id="Listing">
<rect x="430" y="435" width="285" height="486" rx="8"/>
<rect class="class-title-bg" x="430" y="435" width="285" height="42" rx="8"/>
<line x1="430" y1="477" x2="715" y2="477"/>
<text x="572.5" y="462" class="title">Listing</text>
<text x="446" y="495" class="field">+ title: CharField</text>
<text x="446" y="517" class="field">+ photo: ImageField</text>
<text x="446" y="539" class="field">+ description: TextField</text>
<text x="446" y="561" class="field">+ price: DecimalField</text>
<text x="446" y="583" class="field">+ created_at: DateTimeField</text>
<text x="446" y="605" class="field">+ user: ForeignKey</text>
<text x="446" y="627" class="field">+ category: ForeignKey</text>
<text x="446" y="649" class="field">+ location: ForeignKey</text>
<text x="446" y="671" class="field">+ name: CharField</text>
<text x="446" y="693" class="field">+ email: EmailField</text>
<text x="446" y="715" class="field">+ phone: CharField</text>
<text x="446" y="737" class="field">+ is_active: BooleanField</text>
<text x="446" y="759" class="field">+ reported: BooleanField</text>
<text x="446" y="781" class="field">+ report_reason: TextField</text>
<text x="446" y="803" class="field">+ report_message: TextField</text>
<text x="446" y="825" class="field">+ reported_at: DateTimeField</text>
<text x="446" y="847" class="field">+ promoted_until: DateTimeField</text>
<text x="446" y="869" class="field">+ is_promoted: property</text>
<text x="446" y="891" class="field">+ __str__()</text>
</g>
<g class="class-box" id="Image">
<rect x="805" y="60" width="285" height="112" rx="8"/>
<rect class="class-title-bg" x="805" y="60" width="285" height="42" rx="8"/>
<line x1="805" y1="102" x2="1090" y2="102"/>
<text x="947.5" y="87" class="title">Image</text>
<text x="821" y="120" class="field">+ image_url: TextField</text>
<text x="821" y="142" class="field">+ listing: ForeignKey</text>
</g>
<g class="class-box" id="Review">
<rect x="805" y="205" width="285" height="200" rx="8"/>
<rect class="class-title-bg" x="805" y="205" width="285" height="42" rx="8"/>
<line x1="805" y1="247" x2="1090" y2="247"/>
<text x="947.5" y="232" class="title">Review</text>
<text x="821" y="265" class="field">+ rating: IntegerField</text>
<text x="821" y="287" class="field">+ comment: TextField</text>
<text x="821" y="309" class="field">+ user: ForeignKey</text>
<text x="821" y="331" class="field">+ listing: ForeignKey</text>
<text x="821" y="353" class="field">+ created_at: DateTimeField</text>
<text x="821" y="375" class="field">+ __str__()</text>
</g>
<g class="class-box" id="Favorite">
<rect x="805" y="445" width="285" height="134" rx="8"/>
<rect class="class-title-bg" x="805" y="445" width="285" height="42" rx="8"/>
<line x1="805" y1="487" x2="1090" y2="487"/>
<text x="947.5" y="472" class="title">Favorite</text>
<text x="821" y="505" class="field">+ user: ForeignKey</text>
<text x="821" y="527" class="field">+ listing: ForeignKey</text>
<text x="821" y="549" class="field">+ unique_together(user, listing)</text>
</g>
<g class="class-box" id="Order">
<rect x="1180" y="60" width="285" height="288" rx="8"/>
<rect class="class-title-bg" x="1180" y="60" width="285" height="42" rx="8"/>
<line x1="1180" y1="102" x2="1465" y2="102"/>
<text x="1322.5" y="87" class="title">Order</text>
<text x="1196" y="120" class="field">+ user: ForeignKey</text>
<text x="1196" y="142" class="field">+ listing: ForeignKey</text>
<text x="1196" y="164" class="field">+ city: CharField</text>
<text x="1196" y="186" class="field">+ delivery_price: PositiveIntegerField</text>
<text x="1196" y="208" class="field">+ final_price: PositiveIntegerField</text>
<text x="1196" y="230" class="field">+ payment_provider: CharField</text>
<text x="1196" y="252" class="field">+ payment_reference: CharField</text>
<text x="1196" y="274" class="field">+ created_at: DateTimeField</text>
<text x="1196" y="296" class="field">+ paid: BooleanField</text>
<text x="1196" y="318" class="field">+ __str__()</text>
</g>
<g class="class-box" id="CanceledOrderLog">
<rect x="1180" y="395" width="285" height="288" rx="8"/>
<rect class="class-title-bg" x="1180" y="395" width="285" height="42" rx="8"/>
<line x1="1180" y1="437" x2="1465" y2="437"/>
<text x="1322.5" y="422" class="title">CanceledOrderLog</text>
<text x="1196" y="455" class="field">+ original_order_id: PositiveIntegerField</text>
<text x="1196" y="477" class="field">+ user: ForeignKey</text>
<text x="1196" y="499" class="field">+ listing: ForeignKey</text>
<text x="1196" y="521" class="field">+ city: CharField</text>
<text x="1196" y="543" class="field">+ delivery_price: PositiveIntegerField</text>
<text x="1196" y="565" class="field">+ final_price: PositiveIntegerField</text>
<text x="1196" y="587" class="field">+ paid: BooleanField</text>
<text x="1196" y="609" class="field">+ order_created_at: DateTimeField</text>
<text x="1196" y="631" class="field">+ canceled_at: DateTimeField</text>
<text x="1196" y="653" class="field">+ __str__()</text>
</g>
<g class="class-box" id="Message">
<rect x="1180" y="710" width="285" height="178" rx="8"/>
<rect class="class-title-bg" x="1180" y="710" width="285" height="42" rx="8"/>
<line x1="1180" y1="752" x2="1465" y2="752"/>
<text x="1322.5" y="737" class="title">Message</text>
<text x="1196" y="770" class="field">+ listing: ForeignKey</text>
<text x="1196" y="792" class="field">+ sender: ForeignKey</text>
<text x="1196" y="814" class="field">+ receiver: ForeignKey</text>
<text x="1196" y="836" class="field">+ content: TextField</text>
<text x="1196" y="858" class="field">+ timestamp: DateTimeField</text>
</g>
</svg>
